<svg id="Layer_1" data-name="Layer 1" xmlns="http://www.w3.org/2000/svg" viewBox="0 0 603.57 237.38"><defs><style>.cls-1{fill:#f39720;}.cls-2{fill:#732b46;}.cls-3{fill:#7a2945;}.cls-4{fill:#732b44;}.cls-5{fill:#a03c6f;}.cls-6{fill:#6f2b47;}.cls-7{fill:#83326c;}.cls-8{fill:#712b45;}.cls-9{fill:#e96524;}.cls-10{fill:#6e2b49;}.cls-11{fill:#7c2944;}.cls-12{fill:#6f2a45;}.cls-13{fill:#bf4775;}</style></defs><path class="cls-1" d="M54.21,398.1c-4-10.63-7.36-21.43-8-32.84-.42-7.19-.12-7.32,6.94-7.33,7.5,0,15,0,22.49,0,1.5,0,3.86.61,3.91-1.82,0-2.26-2.19-2.16-3.8-2.17-7.83-.07-15.66-.2-23.49,0-4.36.1-5.9-1.45-4.41-5.67.33-.94.43-1.95.71-2.91C50.59,338,50.59,338,58,338H89.47c1.17,0,2.34,0,3.5,0,1.7-.11,3.65-.31,3.66-2.5S94.72,333,93,333c-5.33-.06-10.66,0-16,0-5.83,0-11.66,0-17.49,0-5.61-.05-6.21-1.1-3.27-6.05C65.84,310.72,79.72,300.37,98,296a80.19,80.19,0,0,1,47.13,2.85c6.34,3.29,12.92,6.2,18.14,11.27,1.58,1.53,4.78,2.62,3.72,5.22-1,2.39-4.09,1.65-6.36,1.65q-29.21.06-58.41,0a33.53,33.53,0,0,0-4.48.22,2.69,2.69,0,0,0,0,5.35,41.15,41.15,0,0,0,5,.24q33,0,65.9,0a28,28,0,0,1,4.49.18c2.32.37,7.12,6.2,6.44,8.09-1.19,3.25-4.26,1.76-6.45,1.78-13.48.15-27,.07-40.44.09a26.63,26.63,0,0,0-4.46.33,2.19,2.19,0,0,0,0,4.28,30.42,30.42,0,0,0,4.95.4c14.64,0,29.29.21,43.93-.09,4.72-.1,6.94,1.61,8.13,6,4.86,18,3.53,35.24-5.12,51.83-2.43,1.92-4-.14-5.61-1.35-10.19-7.73-19.81-16.16-29.83-24.1-6.9-5.47-13.6-11.2-20.56-16.6-4.85-3.75-6.23-3.84-10.85-.09-17.69,14.32-35.18,28.9-53,43.05C58.47,398,56.86,400.19,54.21,398.1Z" transform="translate(-14.5 -293.68)"/><path class="cls-2" d="M33.38,492.06a3.75,3.75,0,0,1-2.2-2.5,3.36,3.36,0,0,1,.7-2.58,35,35,0,0,1,5.84-5.83A68,68,0,0,1,44.49,476a68.85,68.85,0,0,1,15.21-7.65A94,94,0,0,1,86,463.54c1.8-.1,3.61-.15,5.41-.13,14.89.11,29,3.8,42.66,9.23,12.67,5,25.13,10.47,38.93,12.11a55.24,55.24,0,0,0,34.06-6.68c-7.79-.84-15-1.81-22-3.95-2.36-.72-5-1.2-5.84-4.08.43-3.16,1.16-6.1,5.16-6.4,11.79,3.36,23.62,6.4,36.09,4.48,1.7-.27,3.91-1.21,5.06.64,1,1.65-.81,3.06-1.66,4.37a142.44,142.44,0,0,1-26,30A114.24,114.24,0,0,1,164.69,523c-15.29,5.9-32.24,9.56-48.67,7.46a158.17,158.17,0,0,1-23.64-4.58,119.2,119.2,0,0,1-21.33-8.39,111.42,111.42,0,0,1-17.14-10.82c-1.82-1.39-4-2.42-5-4.7-1.16-5,2.9-6.69,6-8.59,12-7.43,25-8.24,38.51-5.53a99.42,99.42,0,0,1,22.6,7.73c6.48,3,12.76,6.47,19.33,9.31,17.61,7.61,34.09,5.11,49.83-5.08,1.4-.9,2.8-1.79,4.47-3-18.78,2.38-35.91-2.78-52.78-9.37-7-2.72-13.84-5.62-21.09-7.65-27-7.58-52.32-3.29-76.26,10.75C37.56,491.66,35.64,492.46,33.38,492.06Z" transform="translate(-14.5 -293.68)"/><path class="cls-3" d="M184.37,463.64c-1.58,1.93-1.32,5.16-4.3,6.11-2.09,2.75-4.51,1.23-6.75.41-9.5-3.48-18.92-7.19-28.44-10.64A108.89,108.89,0,0,0,102.09,453c-14.79.78-28.5,5.14-42.29,10.2l-1.69.62a48.58,48.58,0,0,0-6.22,3.08,95.82,95.82,0,0,1-10.15,4.51A44.07,44.07,0,0,1,27.81,474c-3.72.16-9.29.67-12.16-2.26-.14-.15-1.17-1.72-1.15-1.72,18.86-1.54,33.24-14,50.35-19.64,1.69-.56,3-1.37,3-3.45,0-15.88,0-31.76,0-48.79-3.08,2.52-5.32,4.38-7.6,6.2s-4.71,4.45-7.73,1.4,0-5.32,1.74-7.59q21-16.87,42-33.76c5.56-4.49,11-9.1,16.61-13.59,4.94-4,6.82-3.94,11.79.08l55.49,44.86c1.23,1.11,2.49,2.2,3.69,3.34,2,1.85,3.4,4,1.33,6.5s-4.44,1.45-6.58-.26l-8.42-6.72c-1.43,1.48-.95,2.87-1,4.11,0,16.63.08,33.25-.1,49.87,0,3.74,1.06,5.82,4.7,6.93S180.83,462.22,184.37,463.64Z" transform="translate(-14.5 -293.68)"/><path class="cls-4" d="M315.21,353.92c.13,3.06-1.4,5.39-3.33,7.53-10.08,6.06-21.16,5.43-32.06,4.12-4.68-.56-6,1.06-7.39,4.85-6.89,18.9-14,37.72-22.32,56.05-3.79,8.35-8.5,15.95-17.44,19.63-4.11,1.7-8.46,3.12-12.94-1.31,13.66-2.59,18.32-13.21,22.73-23.88,6.23-15.06,12.22-30.21,18.32-45.31.31-.77.71-1.51,1.08-2.25,4.54-9.28,4.54-9.31-6.19-9.38-6.17,0-12.35.29-18.23,2.35-12.12,4.24-14.66,13.95-6.25,23.37-3.16,1.27-5.47.66-7.81-2.34-3.54-4.55-3.4-9.62-1.44-14.68,3.42-8.81,10.66-12.79,19.37-14.72,12.05-2.66,24.15-1.66,36.27-.58,8.75.78,17.44,2.3,26.34.76C308.07,357.41,311.05,354.2,315.21,353.92Z" transform="translate(-14.5 -293.68)"/><path class="cls-5" d="M33.38,492.06c12-9.75,26.14-14.43,41-17.13,18-3.27,35.42-.65,52.41,5.79,8.23,3.12,16.27,6.72,24.73,9.32,14.5,4.47,29.09,6.74,44.39,3.64a52.13,52.13,0,0,1-14.1,11.09c-16.91,9.42-34,9.06-51.16.8-7.64-3.67-15-7.93-23-10.93C95.32,490,82.79,487,69.6,490,61.52,491.89,54,495,48.88,502,43.83,498.49,39.15,494.42,33.38,492.06Z" transform="translate(-14.5 -293.68)"/><path class="cls-6" d="M524.58,386.09c-2.85,0-4.29-1.61-4.41-4.29-.14-3.21,3.62-7,6.68-6.81,2.85.19,4.65,1.78,4.76,4.71C531.72,382.94,528.07,386.15,524.58,386.09Z" transform="translate(-14.5 -293.68)"/><path class="cls-7" d="M144.69,519.72c-9.46,3.55-19.27,3.73-28.95,3a114.87,114.87,0,0,1-52.38-17.37c-1.44-.9-3.89-1.46-3.5-3.71s2.81-2,4.44-2.66c10-4,20.22-3.12,30.29-.33a106.32,106.32,0,0,1,22.73,8.8A225.77,225.77,0,0,0,144.69,519.72Z" transform="translate(-14.5 -293.68)"/><path class="cls-3" d="M197.24,471.54c-1.24-.32-2.91-.47-3-2s1.47-1.57,2.58-1.35,3,.18,3.12,1.83C200,471.39,198.45,471.46,197.24,471.54Z" transform="translate(-14.5 -293.68)"/><path class="cls-8" d="M450.41,395c-1.24.11-2.33.89-3.7-.17-4-3.13-8.49-2.33-12.82-.85-10.2,3.48-16.88,10.94-21.85,20.11a55.75,55.75,0,0,1-9.71,12.83c-1.64,1.61-5.38,4.9-8,4.31-6.81-1.57,5.57-22.29,6.81-25.46,2.7-6.87.55-10.68-6.17-12-11,2.08-16.73,11-23.65,18.53a97.36,97.36,0,0,1,3.82-11.3c1.21-3.05.33-5.26-2.58-6.5-3.28-1.42-3.88,1.28-4.77,3.42-1.78,4.3-3.74,8.53-5.33,12.89a37.86,37.86,0,0,1-9.22,14c-2.84,2.78-5.89,8-10,5.53-4.35-2.55-.86-7.57.29-11.31,1.95-6.39,5.51-12.05,8.82-17.82.93-1.61,2.61-3.44.72-5.4-1.61-1.65-3.74-1.37-5.6-.57a4.05,4.05,0,0,1-4.59-.46c-3.34-2.61-7.13-2.31-10.94-1.35-9.26,2.33-15.74,8.35-20.89,16-4.35,6.46-6.94,14.21-13.89,18.74-5.09-.93-6.05-2.66-4.07-7.3,1.8-4.22,4.71-7.95,5.89-12.46,1.8-6.83-2.57-8-8.18-10.13-2.62-1-4.18-2.45-3.62-5.6.46-2.57,0-5.07-2.67-6.39a3.92,3.92,0,0,0-4.63.8c-2.19,2.09-3.71,4.85-2.14,7.59,2.15,3.76.69,6.57-1.11,9.67-3.34,5.75-6.57,11.57-9.81,17.38-.52.93-1.8,2.08-.56,3s2.53,0,3.36-1.19c1.06-1.49,2.1-3,3-4.56,3.11-5.12,6.29-10.2,9.22-15.42,1.21-2.15,2.33-2.75,4.71-1.7,3,1.33,4,3,2.67,6.2-2.61,6.29-6.28,12.16-7.81,18.87s3.49,11.53,10.21,9.54a21.71,21.71,0,0,0,8.16-4.92c.39-.35,5-4.38,5.06-3.78a10.93,10.93,0,0,0,7.2,10c9.17.31,14-6.91,20.42-12.35-1.56,1.32.7,7.68,1.78,8.89,6.26,6.95,14.79-.64,20-4.48-1.89,1.39,2.76,6.86,4.57,7.08,4.1.51,5.46-4.68,6.84-7.5,4.61-9.43,11.79-17.3,19.31-24.51,2.51-2.42,8-6.18,7.79.08s-6.93,12.78-9.2,18.47c-1.6,4-1.5,9.37,2,12.35,4.68,3.93,11,.59,15.27-2.23,3.61-2.37,5.53-5.51,8.29-.28,6.61,12.49,19.07-1.58,25.41-6.59-1.55,5-3.62,9.49-5.32,14.14-1.42,3.87-3.35,7.61-3.37,11.92,0,2.61,1.48,4.38,3.61,4.74s3.81-1.09,4.57-3.56c2-6.49,4.11-13,6.49-19.33A345.17,345.17,0,0,1,455,401.8C457.53,396.77,455.88,394.48,450.41,395Zm-110.59,11c-4.79,8.77-9.92,17.33-18,23.56-1.54,1.18-3.33,2.61-5.42,1.64s-1.85-3.29-2-6.05c2.94-10.44,7.66-20.48,18.23-26.56,2.49-1.43,5.22-2.29,7.78.25S341,403.73,339.82,405.94Zm103.89-.52c-4.81,9.41-10.65,18.07-19.3,24.46-1.46,1.07-3,2.35-5,1.59-1.32-.5-1.71-1.88-1.86-5.05,2.83-11.82,8.18-22,19.26-28.21,2.39-1.34,5-1.78,7.4.48C446.84,401.18,444.75,403.38,443.71,405.42Z" transform="translate(-14.5 -293.68)"/><path class="cls-9" d="M161.3,422.24c0,9-.1,18,0,26.95.06,3.73-.63,5.18-4.73,3.5-24.84-10.2-50.38-13.22-76.72-6.9-3.14.75-4.08-.24-4.06-3.41q.16-23.7,0-47.42A7.39,7.39,0,0,1,79,388.63q18.3-14.69,36.43-29.56c2.27-1.87,3.89-2.25,6.4-.17,12,10,24.21,19.8,36.42,29.56a7.7,7.7,0,0,1,3.15,6.82C161.2,404.26,161.3,413.25,161.3,422.24Z" transform="translate(-14.5 -293.68)"/><path class="cls-10" d="M617.51,400.69c-1.37-1.52-2.17.46-3.11,1.11-3.25,2.22-11.12,10.19-11.63,2-.5-7.87-5.07-11.48-13-10.91-7.56.54-14.47,4.47-19.72,9.79-8.09,8.18-11.33,18.54-21.91,24.43-3.9,2.17-5.94.61-5.9-3.76a14.31,14.31,0,0,1,4.57-10.64c12.76-12.52,30.12-31.78,30.4-50.93.09-5.75-1.41-7.48-7.26-8.21-7,1.69-11.2,6.87-15,12.43-9.24,13.62-14.86,28.91-20.07,44.36A34.81,34.81,0,0,1,527.12,423c-2.36,2.52-4.69,5.86-7.88,7.55-5.52,2.92-7.88-1.45-5.87-6.48,3.13-7.86,6.46-15.66,9.79-23.44,1-2.37,1.58-4.56-1.33-5.86s-5-.49-6.31,2.66q-3.24,7.83-6.87,15.48c-1.87,3.93-12.29,21.38-18.3,18-8-4.51,7.17-25,9.57-30.14,1.27-2.71,1.54-6-2.35-6.44-4.08-.48-6.1,4.46-7.65,7.38a136.39,136.39,0,0,1-10.39,16.93c-2.12,2.88-9.07,13.78-13.41,12.59-2.23-.61-2.54-3.85-2-5.68,1.31-4.23,19.94-32.74,7.9-31.46-4.78.52-7.27,7.52-8.78,11.23-2.75,6.75-15.21,26.54-4.07,31.14,4.52,1.87,9-.45,12.62-3.19,1.74-1.33,4.28-5.19,6.61-5.33,4-.23,2.41,5.32,4.82,7.34,7.56,6.32,13.5-3.95,19.88-6.46,2.42,5.07,4.74,8.79,11,8a16.26,16.26,0,0,0,8-3.82c2.7-2.14,5.29-4.4,8.06-6.72-.77.65,2.24,6.47,2.8,7.26a8.45,8.45,0,0,0,4.76,3.53c9,2.43,18.34-7.61,24.62-12.62-1.79,1.43,3.47,9.71,4.88,10.78,8.16,6.23,20.22-.54,26-7,3.71-4.15,4.66-10.27,8.7-14.15,4.23-4.07,10.45-5,14.7-9.51C617.78,403.43,618.71,402,617.51,400.69Zm-51.26-38.43c.94-1.32,2.2-2.88,4.11-2.07,2.17.93,1.59,3,1.39,4.82a6.89,6.89,0,0,1-.63,1.89c-5.88,13.68-14.52,25.51-24.55,36.45C552.16,389.15,557.32,374.8,566.25,362.26Zm26.37,54.93c-2.43,5.8-6,10.73-11.5,13.93-5,2.92-8.89.8-9.08-5.12-.25-8.11,3.06-15,8.08-21.78,2.72,4.73,5.89,8.19,11,9.23C593.47,413.94,593.33,415.47,592.62,417.19Zm0-8.56a7.18,7.18,0,0,1-6.32-6.69c-.3-2.53,1.4-4.15,4-3.94,4.12.33,4.66,3.52,4.88,6.84C594.79,406.43,595.56,409.06,592.65,408.63Z" transform="translate(-14.5 -293.68)"/><path class="cls-11" d="M105.07,414.1c0-14.38,0-14.38,14.65-14.37,12.37,0,12.38,0,12.76,12.17.1,3.16.13,6.32.27,9.47.14,3-.74,4.6-4.2,4.57-3.24,0-4.52-1.15-4.34-4.39.18-3-.23-6,.06-9,.49-4.94-2.6-4.6-6-4.74-3.75-.16-5.59.86-5.19,5,.3,3.13,0,6.32.07,9.47.11,2.85-1.2,3.74-3.9,3.74s-4.43-.8-4.26-3.95C105.18,419.43,105.07,416.76,105.07,414.1Z" transform="translate(-14.5 -293.68)"/><path class="cls-12" d="M271.31,467.21h5.31v9.89h10.66v-9.89h5.32v23.55h-5.32v-9.39H276.62v9.39h-5.31Z" transform="translate(-14.5 -293.68)"/><path class="cls-12" d="M316.15,481.07a5.65,5.65,0,0,0,1.44,4.09,5.06,5.06,0,0,0,3.81,1.49,4.79,4.79,0,0,0,3.68-1.49,5.76,5.76,0,0,0,1.39-4.09V467.21h5.32v13.86a10.8,10.8,0,0,1-1.26,5.33,8.56,8.56,0,0,1-3.6,3.5,11.83,11.83,0,0,1-5.57,1.23,12,12,0,0,1-5.6-1.23,8.62,8.62,0,0,1-3.65-3.5,10.7,10.7,0,0,1-1.28-5.33V467.21h5.32Z" transform="translate(-14.5 -293.68)"/><path class="cls-12" d="M360.25,467.21q4.63,0,7.16,2.14a7.4,7.4,0,0,1,2.53,6,8.07,8.07,0,0,1-2.53,6.34c-1.68,1.52-4.07,2.27-7.16,2.27h-4.91v6.8H350V467.21Zm0,12.45a5.18,5.18,0,0,0,3.43-1,3.83,3.83,0,0,0,1.21-3.11,3.7,3.7,0,0,0-1.21-3,5.23,5.23,0,0,0-3.43-1h-4.91v8.18Zm-.64,2.32h5.18l5.72,8.78h-6Z" transform="translate(-14.5 -293.68)"/><path class="cls-12" d="M405.46,474a9.3,9.3,0,0,0-3-2,9.1,9.1,0,0,0-3.45-.71,7.22,7.22,0,0,0-2.92.59,7.32,7.32,0,0,0-3.92,4.06,8,8,0,0,0,1.59,8.46,7.5,7.5,0,0,0,2.36,1.65,7.26,7.26,0,0,0,2.93.58,8.74,8.74,0,0,0,3.12-.64,11.37,11.37,0,0,0,3.07-1.71l3,3.73a15.91,15.91,0,0,1-2.84,1.58,17.32,17.32,0,0,1-3.35,1.11,14.82,14.82,0,0,1-3.36.41,12.92,12.92,0,0,1-5-.93,12.27,12.27,0,0,1-4-2.57,11.57,11.57,0,0,1-2.66-3.89,12.18,12.18,0,0,1-.94-4.79,11.65,11.65,0,0,1,1-4.76,12,12,0,0,1,2.7-3.85,12.38,12.38,0,0,1,4.09-2.56,14.14,14.14,0,0,1,5.08-.91,14.58,14.58,0,0,1,3.47.42,15.33,15.33,0,0,1,3.26,1.2,11.81,11.81,0,0,1,2.73,1.85Zm-1.82,4.95h4.61V488h-4.61Z" transform="translate(-14.5 -293.68)"/><path class="cls-12" d="M426.35,467.21h5.32v9.89h10.66v-9.89h5.32v23.55h-5.32v-9.39H431.67v9.39h-5.32Z" transform="translate(-14.5 -293.68)"/><path class="cls-12" d="M473.85,467.21h5.45l10,23.55h-5.66l-7.26-18.24-7.3,18.24h-5.52Zm-4.54,14.7H483.2v4.14H469.31Z" transform="translate(-14.5 -293.68)"/><path class="cls-12" d="M515.23,467.21a14.2,14.2,0,0,1,5,.86,11.61,11.61,0,0,1,3.92,2.42,10.74,10.74,0,0,1,2.55,3.72,12.9,12.9,0,0,1,0,9.52,10.8,10.8,0,0,1-2.59,3.73,11.61,11.61,0,0,1-4,2.44,14.59,14.59,0,0,1-5.1.86h-9.79V467.21Zm.13,19.21a6.86,6.86,0,0,0,2.76-.54,6.49,6.49,0,0,0,2.17-1.53,7,7,0,0,0,1.43-2.34,8.38,8.38,0,0,0,.51-3,8.1,8.1,0,0,0-.54-3,7.76,7.76,0,0,0-1.48-2.39,6.28,6.28,0,0,0-2.24-1.57,7.48,7.48,0,0,0-2.84-.53h-4.54v14.9Z" transform="translate(-14.5 -293.68)"/><path class="cls-12" d="M551.49,467.21h5.45l10,23.55h-5.65l-7.27-18.24-7.3,18.24h-5.52ZM547,481.91h13.89v4.14H547Z" transform="translate(-14.5 -293.68)"/><path class="cls-13" d="M213.85,475.58s-18.63,2.54-47.81-10.82c-30.17-13.82-64.95-20-97.22-8.58q-2.66.94-5.22,2.07c-11,4.86-35.35,15.68-37.2,15.76l9.3,8.91c.23.21,9.74-5.59,10.59-6a126.64,126.64,0,0,1,14.51-6.53c9.8-3.64,20.34-5.93,30.82-4.94a164.23,164.23,0,0,1,35,6.83c10.83,3.49,20.69,9.55,31.67,12.55a90,90,0,0,0,23.93,3S197.43,489.44,213.85,475.58Z" transform="translate(-14.5 -293.68)"/></svg>